<svg xmlns="http://www.w3.org/2000/svg" viewBox="0 0 1600 900" width="1600" height="900">
  <defs>
    <linearGradient id="bg" x1="0" y1="0" x2="1" y2="1">
      <stop offset="0%" stop-color="#0b0b10"/>
      <stop offset="55%" stop-color="#0e0c15"/>
      <stop offset="100%" stop-color="#120f1c"/>
    </linearGradient>
    <radialGradient id="glow" cx="0.3" cy="0.2" r="0.6">
      <stop offset="0%" stop-color="#3b82f6" stop-opacity="0.16"/>
      <stop offset="55%" stop-color="#3b82f6" stop-opacity="0.05"/>
      <stop offset="100%" stop-color="#3b82f6" stop-opacity="0"/>
    </radialGradient>
    <pattern id="grid" width="48" height="48" patternUnits="userSpaceOnUse">
      <path d="M 48 0 L 0 0 0 48" fill="none" stroke="#3b82f6" stroke-opacity="0.05" stroke-width="1"/>
    </pattern>
  </defs>

  <rect width="1600" height="900" fill="url(#bg)"/>
  <rect width="1600" height="900" fill="url(#grid)"/>
  <rect width="1600" height="900" fill="url(#glow)"/>

  <g stroke="#3b82f6" stroke-opacity="0.12">
    <path d="M0 720 C 300 680 520 760 800 700 C 1080 640 1300 730 1600 680" fill="none" stroke-width="1.5"/>
    <path d="M0 760 C 360 730 600 800 900 750 C 1200 700 1420 780 1600 740" fill="none" stroke-width="1"/>
  </g>

  <g fill="#60a5fa" opacity="0.6">
    <circle cx="120" cy="140" r="2.4"/>
    <circle cx="300" cy="90" r="1.6"/>
    <circle cx="520" cy="180" r="2"/>
    <circle cx="700" cy="110" r="1.5"/>
    <circle cx="880" cy="170" r="2.2"/>
    <circle cx="1060" cy="80" r="1.5"/>
    <circle cx="1240" cy="160" r="2"/>
    <circle cx="1420" cy="90" r="1.6"/>
    <circle cx="1560" cy="200" r="2.2"/>
    <circle cx="200" cy="300" r="1.5"/>
    <circle cx="400" cy="280" r="1.8"/>
    <circle cx="640" cy="320" r="1.6"/>
    <circle cx="820" cy="260" r="1.5"/>
    <circle cx="1020" cy="340" r="1.8"/>
    <circle cx="1200" cy="280" r="1.6"/>
    <circle cx="1380" cy="360" r="1.8"/>
    <circle cx="1520" cy="300" r="1.5"/>
  </g>

  <g fill="#3b82f6" opacity="0.5">
    <rect x="60" y="420" width="12" height="12" rx="2"/>
    <rect x="480" y="420" width="10" height="10" rx="2"/>
    <rect x="900" y="420" width="12" height="12" rx="2"/>
    <rect x="1300" y="420" width="10" height="10" rx="2"/>
    <rect x="200" y="560" width="10" height="10" rx="2"/>
    <rect x="1100" y="560" width="10" height="10" rx="2"/>
    <rect x="700" y="520" width="12" height="12" rx="2"/>
  </g>

  <g font-family="monospace" fill="#ffffff" opacity="0.14">
    <text x="90" y="120" font-size="14">{"data":"encrypted"}</text>
    <text x="90" y="150" font-size="14">{"key":"RSA-OAEP"}</text>
    <text x="90" y="180" font-size="14">{"mode":"AES-GCM"}</text>
  </g>

  <g transform="translate(1420,560)">
    <path d="M0 60 L34 26 L82 42 L82 90 C82 130 50 158 0 176 C-50 158 -82 130 -82 90 L-82 42 L-34 26 Z" fill="none" stroke="#3b82f6" stroke-opacity="0.2" stroke-width="2"/>
    <circle cx="0" cy="104" r="16" fill="none" stroke="#3b82f6" stroke-opacity="0.35" stroke-width="2"/>
  </g>
</svg>
